G04 #@! TF.FileFunction,Legend,Top*
%FSLAX46Y46*%
G04 Gerber Fmt 4.6, Leading zero omitted, Abs format (unit mm)*
G04 Created by KiCad (PCBNEW 0.201511192131+6326~38~ubuntu14.04.1-stable) date Thu 11 Feb 2016 04:57:06 PM EST*
%MOMM*%
G01*
G04 APERTURE LIST*
%ADD10C,0.100000*%
%ADD11C,0.150000*%
G04 APERTURE END LIST*
D10*
D11*
X161278000Y-109550000D02*
X161278000Y-106850000D01*
X159778000Y-109550000D02*
X159778000Y-106850000D01*
X160678000Y-108050000D02*
X160428000Y-108050000D01*
X160428000Y-108050000D02*
X160578000Y-108200000D01*
X160178000Y-108300000D02*
X160878000Y-108300000D01*
X160528000Y-107950000D02*
X160528000Y-107600000D01*
X160528000Y-108300000D02*
X160178000Y-107950000D01*
X160178000Y-107950000D02*
X160878000Y-107950000D01*
X160878000Y-107950000D02*
X160528000Y-108300000D01*
X157130000Y-115175000D02*
X155930000Y-115175000D01*
X155930000Y-113425000D02*
X157130000Y-113425000D01*
X159653000Y-113630000D02*
X159653000Y-112430000D01*
X161403000Y-112430000D02*
X161403000Y-113630000D01*
X154557168Y-108397040D02*
G75*
G03X154557168Y-108397040I-196288J0D01*
G01*
X153720000Y-112960000D02*
X154720000Y-111960000D01*
X154720000Y-111960000D02*
X154720000Y-108020000D01*
X154720000Y-108020000D02*
X151350000Y-108020000D01*
X151350000Y-108020000D02*
X151350000Y-112960000D01*
X151350000Y-112960000D02*
X153720000Y-112960000D01*
X163322000Y-104394000D02*
X163322000Y-114554000D01*
X163322000Y-114554000D02*
X165862000Y-114554000D01*
X165862000Y-114554000D02*
X165862000Y-104394000D01*
X163042000Y-101574000D02*
X163042000Y-103124000D01*
X163322000Y-104394000D02*
X165862000Y-104394000D01*
X166142000Y-103124000D02*
X166142000Y-101574000D01*
X166142000Y-101574000D02*
X163042000Y-101574000D01*
X159789905Y-111577381D02*
X159789905Y-110577381D01*
X160028000Y-110577381D01*
X160170858Y-110625000D01*
X160266096Y-110720238D01*
X160313715Y-110815476D01*
X160361334Y-111005952D01*
X160361334Y-111148810D01*
X160313715Y-111339286D01*
X160266096Y-111434524D01*
X160170858Y-111529762D01*
X160028000Y-111577381D01*
X159789905Y-111577381D01*
X161313715Y-111577381D02*
X160742286Y-111577381D01*
X161028000Y-111577381D02*
X161028000Y-110577381D01*
X160932762Y-110720238D01*
X160837524Y-110815476D01*
X160742286Y-110863095D01*
X157297381Y-109423095D02*
X156297381Y-109423095D01*
X156297381Y-109042142D01*
X156345000Y-108946904D01*
X156392619Y-108899285D01*
X156487857Y-108851666D01*
X156630714Y-108851666D01*
X156725952Y-108899285D01*
X156773571Y-108946904D01*
X156821190Y-109042142D01*
X156821190Y-109423095D01*
X157297381Y-108423095D02*
X156297381Y-108423095D01*
X156297381Y-108185000D01*
X156345000Y-108042142D01*
X156440238Y-107946904D01*
X156535476Y-107899285D01*
X156725952Y-107851666D01*
X156868810Y-107851666D01*
X157059286Y-107899285D01*
X157154524Y-107946904D01*
X157249762Y-108042142D01*
X157297381Y-108185000D01*
X157297381Y-108423095D01*
X157297381Y-106899285D02*
X157297381Y-107470714D01*
X157297381Y-107185000D02*
X156297381Y-107185000D01*
X156440238Y-107280238D01*
X156535476Y-107375476D01*
X156583095Y-107470714D01*
X156363334Y-112652381D02*
X156030000Y-112176190D01*
X155791905Y-112652381D02*
X155791905Y-111652381D01*
X156172858Y-111652381D01*
X156268096Y-111700000D01*
X156315715Y-111747619D01*
X156363334Y-111842857D01*
X156363334Y-111985714D01*
X156315715Y-112080952D01*
X156268096Y-112128571D01*
X156172858Y-112176190D01*
X155791905Y-112176190D01*
X157315715Y-112652381D02*
X156744286Y-112652381D01*
X157030000Y-112652381D02*
X157030000Y-111652381D01*
X156934762Y-111795238D01*
X156839524Y-111890476D01*
X156744286Y-111938095D01*
X160361334Y-110307381D02*
X160028000Y-109831190D01*
X159789905Y-110307381D02*
X159789905Y-109307381D01*
X160170858Y-109307381D01*
X160266096Y-109355000D01*
X160313715Y-109402619D01*
X160361334Y-109497857D01*
X160361334Y-109640714D01*
X160313715Y-109735952D01*
X160266096Y-109783571D01*
X160170858Y-109831190D01*
X159789905Y-109831190D01*
X160742286Y-109402619D02*
X160789905Y-109355000D01*
X160885143Y-109307381D01*
X161123239Y-109307381D01*
X161218477Y-109355000D01*
X161266096Y-109402619D01*
X161313715Y-109497857D01*
X161313715Y-109593095D01*
X161266096Y-109735952D01*
X160694667Y-110307381D01*
X161313715Y-110307381D01*
X152439762Y-98242381D02*
X152106428Y-97766190D01*
X151868333Y-98242381D02*
X151868333Y-97242381D01*
X152249286Y-97242381D01*
X152344524Y-97290000D01*
X152392143Y-97337619D01*
X152439762Y-97432857D01*
X152439762Y-97575714D01*
X152392143Y-97670952D01*
X152344524Y-97718571D01*
X152249286Y-97766190D01*
X151868333Y-97766190D01*
X152725476Y-97242381D02*
X153058809Y-98242381D01*
X153392143Y-97242381D01*
X154249286Y-98242381D02*
X153677857Y-98242381D01*
X153963571Y-98242381D02*
X153963571Y-97242381D01*
X153868333Y-97385238D01*
X153773095Y-97480476D01*
X153677857Y-97528095D01*
X151947994Y-109741417D02*
X151947994Y-110712846D01*
X152005137Y-110827131D01*
X152062280Y-110884274D01*
X152176566Y-110941417D01*
X152405137Y-110941417D01*
X152519423Y-110884274D01*
X152576566Y-110827131D01*
X152633709Y-110712846D01*
X152633709Y-109741417D01*
X153833709Y-110941417D02*
X153147994Y-110941417D01*
X153490852Y-110941417D02*
X153490852Y-109741417D01*
X153376566Y-109912846D01*
X153262280Y-110027131D01*
X153147994Y-110084274D01*
X170144381Y-103862095D02*
X169144381Y-103862095D01*
X169144381Y-103481142D01*
X169192000Y-103385904D01*
X169239619Y-103338285D01*
X169334857Y-103290666D01*
X169477714Y-103290666D01*
X169572952Y-103338285D01*
X169620571Y-103385904D01*
X169668190Y-103481142D01*
X169668190Y-103862095D01*
X170144381Y-102338285D02*
X170144381Y-102909714D01*
X170144381Y-102624000D02*
X169144381Y-102624000D01*
X169287238Y-102719238D01*
X169382476Y-102814476D01*
X169430095Y-102909714D01*
M02*
