G04 #@! TF.FileFunction,Legend,Top*
%FSLAX46Y46*%
G04 Gerber Fmt 4.6, Leading zero omitted, Abs format (unit mm)*
G04 Created by KiCad (PCBNEW 0.201511192131+6326~38~ubuntu14.04.1-stable) date Thu 11 Feb 2016 05:33:09 PM EST*
%MOMM*%
G01*
G04 APERTURE LIST*
%ADD10C,0.100000*%
%ADD11C,0.150000*%
%ADD12C,0.010000*%
G04 APERTURE END LIST*
D10*
D11*
X161278000Y-109550000D02*
X161278000Y-106850000D01*
X159778000Y-109550000D02*
X159778000Y-106850000D01*
X160678000Y-108050000D02*
X160428000Y-108050000D01*
X160428000Y-108050000D02*
X160578000Y-108200000D01*
X160178000Y-108300000D02*
X160878000Y-108300000D01*
X160528000Y-107950000D02*
X160528000Y-107600000D01*
X160528000Y-108300000D02*
X160178000Y-107950000D01*
X160178000Y-107950000D02*
X160878000Y-107950000D01*
X160878000Y-107950000D02*
X160528000Y-108300000D01*
X157130000Y-115175000D02*
X155930000Y-115175000D01*
X155930000Y-113425000D02*
X157130000Y-113425000D01*
X159653000Y-113630000D02*
X159653000Y-112430000D01*
X161403000Y-112430000D02*
X161403000Y-113630000D01*
X154557168Y-108397040D02*
G75*
G03X154557168Y-108397040I-196288J0D01*
G01*
X153720000Y-112960000D02*
X154720000Y-111960000D01*
X154720000Y-111960000D02*
X154720000Y-108020000D01*
X154720000Y-108020000D02*
X151350000Y-108020000D01*
X151350000Y-108020000D02*
X151350000Y-112960000D01*
X151350000Y-112960000D02*
X153720000Y-112960000D01*
X163322000Y-104394000D02*
X163322000Y-114554000D01*
X163322000Y-114554000D02*
X165862000Y-114554000D01*
X165862000Y-114554000D02*
X165862000Y-104394000D01*
X163042000Y-101574000D02*
X163042000Y-103124000D01*
X163322000Y-104394000D02*
X165862000Y-104394000D01*
X166142000Y-103124000D02*
X166142000Y-101574000D01*
X166142000Y-101574000D02*
X163042000Y-101574000D01*
D12*
G36*
X161687933Y-100736400D02*
X161687764Y-101052400D01*
X161687258Y-101336329D01*
X161686418Y-101587991D01*
X161685245Y-101807188D01*
X161683741Y-101993724D01*
X161681908Y-102147399D01*
X161679749Y-102268019D01*
X161677265Y-102355384D01*
X161674457Y-102409299D01*
X161671329Y-102429565D01*
X161671000Y-102429733D01*
X161666583Y-102412901D01*
X161662812Y-102362801D01*
X161659697Y-102280025D01*
X161657253Y-102165165D01*
X161655491Y-102018812D01*
X161654425Y-101841561D01*
X161654067Y-101634002D01*
X161654066Y-101633867D01*
X161654066Y-100838000D01*
X158385933Y-100838000D01*
X158385933Y-102429733D01*
X158301267Y-102429733D01*
X158301267Y-99076933D01*
X158385933Y-99076933D01*
X158385933Y-100668667D01*
X159977666Y-100668667D01*
X159977666Y-99076933D01*
X160062333Y-99076933D01*
X160062333Y-100668667D01*
X161654066Y-100668667D01*
X161654066Y-99076933D01*
X160062333Y-99076933D01*
X159977666Y-99076933D01*
X158385933Y-99076933D01*
X158301267Y-99076933D01*
X158301267Y-99043067D01*
X161687933Y-99043067D01*
X161687933Y-100736400D01*
X161687933Y-100736400D01*
G37*
X161687933Y-100736400D02*
X161687764Y-101052400D01*
X161687258Y-101336329D01*
X161686418Y-101587991D01*
X161685245Y-101807188D01*
X161683741Y-101993724D01*
X161681908Y-102147399D01*
X161679749Y-102268019D01*
X161677265Y-102355384D01*
X161674457Y-102409299D01*
X161671329Y-102429565D01*
X161671000Y-102429733D01*
X161666583Y-102412901D01*
X161662812Y-102362801D01*
X161659697Y-102280025D01*
X161657253Y-102165165D01*
X161655491Y-102018812D01*
X161654425Y-101841561D01*
X161654067Y-101634002D01*
X161654066Y-101633867D01*
X161654066Y-100838000D01*
X158385933Y-100838000D01*
X158385933Y-102429733D01*
X158301267Y-102429733D01*
X158301267Y-99076933D01*
X158385933Y-99076933D01*
X158385933Y-100668667D01*
X159977666Y-100668667D01*
X159977666Y-99076933D01*
X160062333Y-99076933D01*
X160062333Y-100668667D01*
X161654066Y-100668667D01*
X161654066Y-99076933D01*
X160062333Y-99076933D01*
X159977666Y-99076933D01*
X158385933Y-99076933D01*
X158301267Y-99076933D01*
X158301267Y-99043067D01*
X161687933Y-99043067D01*
X161687933Y-100736400D01*
G36*
X158575162Y-100986602D02*
X158618575Y-101004641D01*
X158684570Y-101034144D01*
X158769262Y-101073332D01*
X158868764Y-101120426D01*
X158979190Y-101173650D01*
X159005802Y-101186609D01*
X159124748Y-101244537D01*
X159239451Y-101300206D01*
X159344740Y-101351119D01*
X159435445Y-101394782D01*
X159506394Y-101428700D01*
X159552416Y-101450379D01*
X159554333Y-101451264D01*
X159664400Y-101501995D01*
X160633833Y-101499118D01*
X161603266Y-101496242D01*
X161603266Y-101836828D01*
X161602506Y-101969516D01*
X161599696Y-102072372D01*
X161594044Y-102149410D01*
X161584757Y-102204642D01*
X161571043Y-102242079D01*
X161552108Y-102265736D01*
X161527161Y-102279623D01*
X161515045Y-102283416D01*
X161486578Y-102286634D01*
X161430143Y-102289470D01*
X161351638Y-102291758D01*
X161256960Y-102293330D01*
X161152008Y-102294020D01*
X161139884Y-102294035D01*
X160803501Y-102294267D01*
X160746323Y-102231843D01*
X160710687Y-102189044D01*
X160685358Y-102151514D01*
X160679398Y-102138709D01*
X160668792Y-102115782D01*
X160654635Y-102113238D01*
X160632731Y-102133747D01*
X160598887Y-102179976D01*
X160586955Y-102197513D01*
X160527378Y-102285800D01*
X160375289Y-102296707D01*
X160301032Y-102300813D01*
X160210921Y-102303927D01*
X160111805Y-102306022D01*
X160010535Y-102307073D01*
X159913961Y-102307053D01*
X159828931Y-102305936D01*
X159762296Y-102303694D01*
X159720905Y-102300303D01*
X159715200Y-102299248D01*
X159682829Y-102287975D01*
X159658898Y-102268594D01*
X159642167Y-102236463D01*
X159631400Y-102186938D01*
X159625359Y-102115379D01*
X159622807Y-102017142D01*
X159622443Y-101951287D01*
X159622068Y-101684667D01*
X159791400Y-101684667D01*
X159791400Y-102124933D01*
X160025983Y-102124933D01*
X160122226Y-102124150D01*
X160216057Y-102122009D01*
X160297375Y-102118829D01*
X160356082Y-102114924D01*
X160360890Y-102114447D01*
X160418057Y-102107008D01*
X160454117Y-102094666D01*
X160481722Y-102069829D01*
X160513525Y-102024906D01*
X160515774Y-102021511D01*
X160544552Y-101974518D01*
X160560985Y-101933929D01*
X160568450Y-101886767D01*
X160570323Y-101820057D01*
X160570333Y-101811863D01*
X160570333Y-101684667D01*
X160739667Y-101684667D01*
X160739667Y-101811627D01*
X160740908Y-101879356D01*
X160747084Y-101925994D01*
X160761871Y-101964293D01*
X160788947Y-102007007D01*
X160800810Y-102023695D01*
X160861953Y-102108802D01*
X161143710Y-102104167D01*
X161425467Y-102099533D01*
X161430221Y-101892100D01*
X161434976Y-101684667D01*
X160739667Y-101684667D01*
X160570333Y-101684667D01*
X159791400Y-101684667D01*
X159622068Y-101684667D01*
X159622067Y-101684507D01*
X159394214Y-101570950D01*
X159314262Y-101532009D01*
X159245271Y-101500122D01*
X159192726Y-101477688D01*
X159162111Y-101467109D01*
X159156752Y-101467004D01*
X159149902Y-101486599D01*
X159138703Y-101532345D01*
X159124805Y-101597062D01*
X159112203Y-101661074D01*
X159097763Y-101735573D01*
X159085316Y-101796577D01*
X159076316Y-101837148D01*
X159072454Y-101850400D01*
X159055033Y-101848195D01*
X159023778Y-101835121D01*
X158993483Y-101818402D01*
X158978943Y-101805262D01*
X158978895Y-101804715D01*
X158981760Y-101782366D01*
X158988943Y-101735602D01*
X158998962Y-101673372D01*
X159010335Y-101604627D01*
X159021579Y-101538318D01*
X159031214Y-101483394D01*
X159037755Y-101448808D01*
X159038081Y-101447277D01*
X159039908Y-101429142D01*
X159033613Y-101412925D01*
X159014648Y-101395279D01*
X158978464Y-101372852D01*
X158920512Y-101342296D01*
X158842880Y-101303541D01*
X158753833Y-101260696D01*
X158690806Y-101233373D01*
X158650398Y-101220325D01*
X158629208Y-101220303D01*
X158625333Y-101223691D01*
X158617616Y-101248144D01*
X158606560Y-101298532D01*
X158593696Y-101367279D01*
X158581714Y-101439393D01*
X158569306Y-101515614D01*
X158558316Y-101577814D01*
X158549967Y-101619415D01*
X158545571Y-101633867D01*
X158527837Y-101627630D01*
X158494981Y-101613388D01*
X158479661Y-101607104D01*
X158468278Y-101601102D01*
X158460998Y-101591104D01*
X158457988Y-101572829D01*
X158459413Y-101542000D01*
X158465440Y-101494335D01*
X158476235Y-101425557D01*
X158491964Y-101331385D01*
X158510122Y-101223495D01*
X158524851Y-101138692D01*
X158538389Y-101066382D01*
X158549479Y-101012885D01*
X158556863Y-100984521D01*
X158558218Y-100981804D01*
X158575162Y-100986602D01*
X158575162Y-100986602D01*
G37*
X158575162Y-100986602D02*
X158618575Y-101004641D01*
X158684570Y-101034144D01*
X158769262Y-101073332D01*
X158868764Y-101120426D01*
X158979190Y-101173650D01*
X159005802Y-101186609D01*
X159124748Y-101244537D01*
X159239451Y-101300206D01*
X159344740Y-101351119D01*
X159435445Y-101394782D01*
X159506394Y-101428700D01*
X159552416Y-101450379D01*
X159554333Y-101451264D01*
X159664400Y-101501995D01*
X160633833Y-101499118D01*
X161603266Y-101496242D01*
X161603266Y-101836828D01*
X161602506Y-101969516D01*
X161599696Y-102072372D01*
X161594044Y-102149410D01*
X161584757Y-102204642D01*
X161571043Y-102242079D01*
X161552108Y-102265736D01*
X161527161Y-102279623D01*
X161515045Y-102283416D01*
X161486578Y-102286634D01*
X161430143Y-102289470D01*
X161351638Y-102291758D01*
X161256960Y-102293330D01*
X161152008Y-102294020D01*
X161139884Y-102294035D01*
X160803501Y-102294267D01*
X160746323Y-102231843D01*
X160710687Y-102189044D01*
X160685358Y-102151514D01*
X160679398Y-102138709D01*
X160668792Y-102115782D01*
X160654635Y-102113238D01*
X160632731Y-102133747D01*
X160598887Y-102179976D01*
X160586955Y-102197513D01*
X160527378Y-102285800D01*
X160375289Y-102296707D01*
X160301032Y-102300813D01*
X160210921Y-102303927D01*
X160111805Y-102306022D01*
X160010535Y-102307073D01*
X159913961Y-102307053D01*
X159828931Y-102305936D01*
X159762296Y-102303694D01*
X159720905Y-102300303D01*
X159715200Y-102299248D01*
X159682829Y-102287975D01*
X159658898Y-102268594D01*
X159642167Y-102236463D01*
X159631400Y-102186938D01*
X159625359Y-102115379D01*
X159622807Y-102017142D01*
X159622443Y-101951287D01*
X159622068Y-101684667D01*
X159791400Y-101684667D01*
X159791400Y-102124933D01*
X160025983Y-102124933D01*
X160122226Y-102124150D01*
X160216057Y-102122009D01*
X160297375Y-102118829D01*
X160356082Y-102114924D01*
X160360890Y-102114447D01*
X160418057Y-102107008D01*
X160454117Y-102094666D01*
X160481722Y-102069829D01*
X160513525Y-102024906D01*
X160515774Y-102021511D01*
X160544552Y-101974518D01*
X160560985Y-101933929D01*
X160568450Y-101886767D01*
X160570323Y-101820057D01*
X160570333Y-101811863D01*
X160570333Y-101684667D01*
X160739667Y-101684667D01*
X160739667Y-101811627D01*
X160740908Y-101879356D01*
X160747084Y-101925994D01*
X160761871Y-101964293D01*
X160788947Y-102007007D01*
X160800810Y-102023695D01*
X160861953Y-102108802D01*
X161143710Y-102104167D01*
X161425467Y-102099533D01*
X161430221Y-101892100D01*
X161434976Y-101684667D01*
X160739667Y-101684667D01*
X160570333Y-101684667D01*
X159791400Y-101684667D01*
X159622068Y-101684667D01*
X159622067Y-101684507D01*
X159394214Y-101570950D01*
X159314262Y-101532009D01*
X159245271Y-101500122D01*
X159192726Y-101477688D01*
X159162111Y-101467109D01*
X159156752Y-101467004D01*
X159149902Y-101486599D01*
X159138703Y-101532345D01*
X159124805Y-101597062D01*
X159112203Y-101661074D01*
X159097763Y-101735573D01*
X159085316Y-101796577D01*
X159076316Y-101837148D01*
X159072454Y-101850400D01*
X159055033Y-101848195D01*
X159023778Y-101835121D01*
X158993483Y-101818402D01*
X158978943Y-101805262D01*
X158978895Y-101804715D01*
X158981760Y-101782366D01*
X158988943Y-101735602D01*
X158998962Y-101673372D01*
X159010335Y-101604627D01*
X159021579Y-101538318D01*
X159031214Y-101483394D01*
X159037755Y-101448808D01*
X159038081Y-101447277D01*
X159039908Y-101429142D01*
X159033613Y-101412925D01*
X159014648Y-101395279D01*
X158978464Y-101372852D01*
X158920512Y-101342296D01*
X158842880Y-101303541D01*
X158753833Y-101260696D01*
X158690806Y-101233373D01*
X158650398Y-101220325D01*
X158629208Y-101220303D01*
X158625333Y-101223691D01*
X158617616Y-101248144D01*
X158606560Y-101298532D01*
X158593696Y-101367279D01*
X158581714Y-101439393D01*
X158569306Y-101515614D01*
X158558316Y-101577814D01*
X158549967Y-101619415D01*
X158545571Y-101633867D01*
X158527837Y-101627630D01*
X158494981Y-101613388D01*
X158479661Y-101607104D01*
X158468278Y-101601102D01*
X158460998Y-101591104D01*
X158457988Y-101572829D01*
X158459413Y-101542000D01*
X158465440Y-101494335D01*
X158476235Y-101425557D01*
X158491964Y-101331385D01*
X158510122Y-101223495D01*
X158524851Y-101138692D01*
X158538389Y-101066382D01*
X158549479Y-101012885D01*
X158556863Y-100984521D01*
X158558218Y-100981804D01*
X158575162Y-100986602D01*
G36*
X159251609Y-99162486D02*
X159329323Y-99165406D01*
X159382468Y-99170750D01*
X159415672Y-99178912D01*
X159428330Y-99185599D01*
X159441146Y-99197910D01*
X159450390Y-99216812D01*
X159456816Y-99247794D01*
X159461177Y-99296344D01*
X159464228Y-99367951D01*
X159466646Y-99464556D01*
X159468547Y-99562592D01*
X159468918Y-99632593D01*
X159467068Y-99680383D01*
X159462304Y-99711782D01*
X159453937Y-99732614D01*
X159441273Y-99748700D01*
X159431784Y-99758056D01*
X159392458Y-99792474D01*
X159358604Y-99817767D01*
X159335535Y-99835116D01*
X159341110Y-99848239D01*
X159358604Y-99860100D01*
X159395243Y-99887596D01*
X159430571Y-99918597D01*
X159445081Y-99933905D01*
X159455472Y-99951426D01*
X159462430Y-99976679D01*
X159466642Y-100015181D01*
X159468793Y-100072448D01*
X159469571Y-100153998D01*
X159469667Y-100232860D01*
X159468930Y-100344552D01*
X159466488Y-100426906D01*
X159461991Y-100484425D01*
X159455092Y-100521613D01*
X159445667Y-100542663D01*
X159433598Y-100555281D01*
X159415106Y-100564434D01*
X159384809Y-100570838D01*
X159337325Y-100575210D01*
X159267274Y-100578265D01*
X159169273Y-100580720D01*
X159157800Y-100580958D01*
X158893933Y-100586384D01*
X158893933Y-100465467D01*
X159029400Y-100465467D01*
X159334200Y-100465467D01*
X159334200Y-99976706D01*
X159280274Y-99938307D01*
X159210141Y-99906116D01*
X159127874Y-99892786D01*
X159029400Y-99885663D01*
X159029400Y-100465467D01*
X158893933Y-100465467D01*
X158893933Y-99280133D01*
X159029400Y-99280133D01*
X159029400Y-99788133D01*
X159118602Y-99788133D01*
X159190262Y-99781836D01*
X159248026Y-99759530D01*
X159271002Y-99745189D01*
X159334200Y-99702246D01*
X159334200Y-99280133D01*
X159029400Y-99280133D01*
X158893933Y-99280133D01*
X158893933Y-99161600D01*
X159144697Y-99161600D01*
X159251609Y-99162486D01*
X159251609Y-99162486D01*
G37*
X159251609Y-99162486D02*
X159329323Y-99165406D01*
X159382468Y-99170750D01*
X159415672Y-99178912D01*
X159428330Y-99185599D01*
X159441146Y-99197910D01*
X159450390Y-99216812D01*
X159456816Y-99247794D01*
X159461177Y-99296344D01*
X159464228Y-99367951D01*
X159466646Y-99464556D01*
X159468547Y-99562592D01*
X159468918Y-99632593D01*
X159467068Y-99680383D01*
X159462304Y-99711782D01*
X159453937Y-99732614D01*
X159441273Y-99748700D01*
X159431784Y-99758056D01*
X159392458Y-99792474D01*
X159358604Y-99817767D01*
X159335535Y-99835116D01*
X159341110Y-99848239D01*
X159358604Y-99860100D01*
X159395243Y-99887596D01*
X159430571Y-99918597D01*
X159445081Y-99933905D01*
X159455472Y-99951426D01*
X159462430Y-99976679D01*
X159466642Y-100015181D01*
X159468793Y-100072448D01*
X159469571Y-100153998D01*
X159469667Y-100232860D01*
X159468930Y-100344552D01*
X159466488Y-100426906D01*
X159461991Y-100484425D01*
X159455092Y-100521613D01*
X159445667Y-100542663D01*
X159433598Y-100555281D01*
X159415106Y-100564434D01*
X159384809Y-100570838D01*
X159337325Y-100575210D01*
X159267274Y-100578265D01*
X159169273Y-100580720D01*
X159157800Y-100580958D01*
X158893933Y-100586384D01*
X158893933Y-100465467D01*
X159029400Y-100465467D01*
X159334200Y-100465467D01*
X159334200Y-99976706D01*
X159280274Y-99938307D01*
X159210141Y-99906116D01*
X159127874Y-99892786D01*
X159029400Y-99885663D01*
X159029400Y-100465467D01*
X158893933Y-100465467D01*
X158893933Y-99280133D01*
X159029400Y-99280133D01*
X159029400Y-99788133D01*
X159118602Y-99788133D01*
X159190262Y-99781836D01*
X159248026Y-99759530D01*
X159271002Y-99745189D01*
X159334200Y-99702246D01*
X159334200Y-99280133D01*
X159029400Y-99280133D01*
X158893933Y-99280133D01*
X158893933Y-99161600D01*
X159144697Y-99161600D01*
X159251609Y-99162486D01*
G36*
X161095267Y-99280133D02*
X160773533Y-99280133D01*
X160773533Y-99805067D01*
X161078333Y-99805067D01*
X161078333Y-99923600D01*
X160773533Y-99923600D01*
X160773533Y-100584000D01*
X160638067Y-100584000D01*
X160638067Y-99161600D01*
X161095267Y-99161600D01*
X161095267Y-99280133D01*
X161095267Y-99280133D01*
G37*
X161095267Y-99280133D02*
X160773533Y-99280133D01*
X160773533Y-99805067D01*
X161078333Y-99805067D01*
X161078333Y-99923600D01*
X160773533Y-99923600D01*
X160773533Y-100584000D01*
X160638067Y-100584000D01*
X160638067Y-99161600D01*
X161095267Y-99161600D01*
X161095267Y-99280133D01*
D11*
X159815305Y-105684581D02*
X159815305Y-104684581D01*
X160053400Y-104684581D01*
X160196258Y-104732200D01*
X160291496Y-104827438D01*
X160339115Y-104922676D01*
X160386734Y-105113152D01*
X160386734Y-105256010D01*
X160339115Y-105446486D01*
X160291496Y-105541724D01*
X160196258Y-105636962D01*
X160053400Y-105684581D01*
X159815305Y-105684581D01*
X161339115Y-105684581D02*
X160767686Y-105684581D01*
X161053400Y-105684581D02*
X161053400Y-104684581D01*
X160958162Y-104827438D01*
X160862924Y-104922676D01*
X160767686Y-104970295D01*
X157297381Y-109423095D02*
X156297381Y-109423095D01*
X156297381Y-109042142D01*
X156345000Y-108946904D01*
X156392619Y-108899285D01*
X156487857Y-108851666D01*
X156630714Y-108851666D01*
X156725952Y-108899285D01*
X156773571Y-108946904D01*
X156821190Y-109042142D01*
X156821190Y-109423095D01*
X157297381Y-108423095D02*
X156297381Y-108423095D01*
X156297381Y-108185000D01*
X156345000Y-108042142D01*
X156440238Y-107946904D01*
X156535476Y-107899285D01*
X156725952Y-107851666D01*
X156868810Y-107851666D01*
X157059286Y-107899285D01*
X157154524Y-107946904D01*
X157249762Y-108042142D01*
X157297381Y-108185000D01*
X157297381Y-108423095D01*
X157297381Y-106899285D02*
X157297381Y-107470714D01*
X157297381Y-107185000D02*
X156297381Y-107185000D01*
X156440238Y-107280238D01*
X156535476Y-107375476D01*
X156583095Y-107470714D01*
X158913534Y-116200181D02*
X158580200Y-115723990D01*
X158342105Y-116200181D02*
X158342105Y-115200181D01*
X158723058Y-115200181D01*
X158818296Y-115247800D01*
X158865915Y-115295419D01*
X158913534Y-115390657D01*
X158913534Y-115533514D01*
X158865915Y-115628752D01*
X158818296Y-115676371D01*
X158723058Y-115723990D01*
X158342105Y-115723990D01*
X159865915Y-116200181D02*
X159294486Y-116200181D01*
X159580200Y-116200181D02*
X159580200Y-115200181D01*
X159484962Y-115343038D01*
X159389724Y-115438276D01*
X159294486Y-115485895D01*
X160285134Y-111297981D02*
X159951800Y-110821790D01*
X159713705Y-111297981D02*
X159713705Y-110297981D01*
X160094658Y-110297981D01*
X160189896Y-110345600D01*
X160237515Y-110393219D01*
X160285134Y-110488457D01*
X160285134Y-110631314D01*
X160237515Y-110726552D01*
X160189896Y-110774171D01*
X160094658Y-110821790D01*
X159713705Y-110821790D01*
X160666086Y-110393219D02*
X160713705Y-110345600D01*
X160808943Y-110297981D01*
X161047039Y-110297981D01*
X161142277Y-110345600D01*
X161189896Y-110393219D01*
X161237515Y-110488457D01*
X161237515Y-110583695D01*
X161189896Y-110726552D01*
X160618467Y-111297981D01*
X161237515Y-111297981D01*
X155259162Y-102509581D02*
X154925828Y-102033390D01*
X154687733Y-102509581D02*
X154687733Y-101509581D01*
X155068686Y-101509581D01*
X155163924Y-101557200D01*
X155211543Y-101604819D01*
X155259162Y-101700057D01*
X155259162Y-101842914D01*
X155211543Y-101938152D01*
X155163924Y-101985771D01*
X155068686Y-102033390D01*
X154687733Y-102033390D01*
X155544876Y-101509581D02*
X155878209Y-102509581D01*
X156211543Y-101509581D01*
X157068686Y-102509581D02*
X156497257Y-102509581D01*
X156782971Y-102509581D02*
X156782971Y-101509581D01*
X156687733Y-101652438D01*
X156592495Y-101747676D01*
X156497257Y-101795295D01*
X151947994Y-109741417D02*
X151947994Y-110712846D01*
X152005137Y-110827131D01*
X152062280Y-110884274D01*
X152176566Y-110941417D01*
X152405137Y-110941417D01*
X152519423Y-110884274D01*
X152576566Y-110827131D01*
X152633709Y-110712846D01*
X152633709Y-109741417D01*
X153833709Y-110941417D02*
X153147994Y-110941417D01*
X153490852Y-110941417D02*
X153490852Y-109741417D01*
X153376566Y-109912846D01*
X153262280Y-110027131D01*
X153147994Y-110084274D01*
X164942781Y-100941095D02*
X163942781Y-100941095D01*
X163942781Y-100560142D01*
X163990400Y-100464904D01*
X164038019Y-100417285D01*
X164133257Y-100369666D01*
X164276114Y-100369666D01*
X164371352Y-100417285D01*
X164418971Y-100464904D01*
X164466590Y-100560142D01*
X164466590Y-100941095D01*
X164942781Y-99417285D02*
X164942781Y-99988714D01*
X164942781Y-99703000D02*
X163942781Y-99703000D01*
X164085638Y-99798238D01*
X164180876Y-99893476D01*
X164228495Y-99988714D01*
M02*
