G04 #@! TF.FileFunction,Copper,L2,Bot,Signal*
%FSLAX46Y46*%
G04 Gerber Fmt 4.6, Leading zero omitted, Abs format (unit mm)*
G04 Created by KiCad (PCBNEW 0.201511192131+6326~38~ubuntu14.04.1-stable) date Thu 11 Feb 2016 04:57:06 PM EST*
%MOMM*%
G01*
G04 APERTURE LIST*
%ADD10C,0.100000*%
%ADD11R,2.032000X1.727200*%
%ADD12O,2.032000X1.727200*%
%ADD13C,0.600000*%
%ADD14C,0.254000*%
G04 APERTURE END LIST*
D10*
D11*
X164592000Y-103124000D03*
D12*
X164592000Y-105664000D03*
X164592000Y-108204000D03*
X164592000Y-110744000D03*
X164592000Y-113284000D03*
D13*
X152400000Y-109855000D03*
D14*
G36*
X166878000Y-116713000D02*
X150622000Y-116713000D01*
X150622000Y-113643026D01*
X162984642Y-113643026D01*
X162987291Y-113658791D01*
X163241268Y-114186036D01*
X163677680Y-114575954D01*
X164230087Y-114769184D01*
X164465000Y-114624924D01*
X164465000Y-113411000D01*
X164719000Y-113411000D01*
X164719000Y-114624924D01*
X164953913Y-114769184D01*
X165506320Y-114575954D01*
X165942732Y-114186036D01*
X166196709Y-113658791D01*
X166199358Y-113643026D01*
X166078217Y-113411000D01*
X164719000Y-113411000D01*
X164465000Y-113411000D01*
X163105783Y-113411000D01*
X162984642Y-113643026D01*
X150622000Y-113643026D01*
X150622000Y-111103026D01*
X162984642Y-111103026D01*
X162987291Y-111118791D01*
X163241268Y-111646036D01*
X163653108Y-112014000D01*
X163241268Y-112381964D01*
X162987291Y-112909209D01*
X162984642Y-112924974D01*
X163105783Y-113157000D01*
X164465000Y-113157000D01*
X164465000Y-110871000D01*
X164719000Y-110871000D01*
X164719000Y-113157000D01*
X166078217Y-113157000D01*
X166199358Y-112924974D01*
X166196709Y-112909209D01*
X165942732Y-112381964D01*
X165530892Y-112014000D01*
X165942732Y-111646036D01*
X166196709Y-111118791D01*
X166199358Y-111103026D01*
X166078217Y-110871000D01*
X164719000Y-110871000D01*
X164465000Y-110871000D01*
X163105783Y-110871000D01*
X162984642Y-111103026D01*
X150622000Y-111103026D01*
X150622000Y-105664000D01*
X162908655Y-105664000D01*
X163022729Y-106237489D01*
X163347585Y-106723670D01*
X163662366Y-106934000D01*
X163347585Y-107144330D01*
X163022729Y-107630511D01*
X162908655Y-108204000D01*
X163022729Y-108777489D01*
X163347585Y-109263670D01*
X163657069Y-109470461D01*
X163241268Y-109841964D01*
X162987291Y-110369209D01*
X162984642Y-110384974D01*
X163105783Y-110617000D01*
X164465000Y-110617000D01*
X164465000Y-110597000D01*
X164719000Y-110597000D01*
X164719000Y-110617000D01*
X166078217Y-110617000D01*
X166199358Y-110384974D01*
X166196709Y-110369209D01*
X165942732Y-109841964D01*
X165526931Y-109470461D01*
X165836415Y-109263670D01*
X166161271Y-108777489D01*
X166275345Y-108204000D01*
X166161271Y-107630511D01*
X165836415Y-107144330D01*
X165521634Y-106934000D01*
X165836415Y-106723670D01*
X166161271Y-106237489D01*
X166275345Y-105664000D01*
X166161271Y-105090511D01*
X165836415Y-104604330D01*
X165822087Y-104594757D01*
X165843317Y-104590762D01*
X166059441Y-104451690D01*
X166204431Y-104239490D01*
X166255440Y-103987600D01*
X166255440Y-102260400D01*
X166211162Y-102025083D01*
X166072090Y-101808959D01*
X165859890Y-101663969D01*
X165608000Y-101612960D01*
X163576000Y-101612960D01*
X163340683Y-101657238D01*
X163124559Y-101796310D01*
X162979569Y-102008510D01*
X162928560Y-102260400D01*
X162928560Y-103987600D01*
X162972838Y-104222917D01*
X163111910Y-104439041D01*
X163324110Y-104584031D01*
X163365439Y-104592400D01*
X163347585Y-104604330D01*
X163022729Y-105090511D01*
X162908655Y-105664000D01*
X150622000Y-105664000D01*
X150622000Y-98552000D01*
X166878000Y-98552000D01*
X166878000Y-116713000D01*
X166878000Y-116713000D01*
G37*
X166878000Y-116713000D02*
X150622000Y-116713000D01*
X150622000Y-113643026D01*
X162984642Y-113643026D01*
X162987291Y-113658791D01*
X163241268Y-114186036D01*
X163677680Y-114575954D01*
X164230087Y-114769184D01*
X164465000Y-114624924D01*
X164465000Y-113411000D01*
X164719000Y-113411000D01*
X164719000Y-114624924D01*
X164953913Y-114769184D01*
X165506320Y-114575954D01*
X165942732Y-114186036D01*
X166196709Y-113658791D01*
X166199358Y-113643026D01*
X166078217Y-113411000D01*
X164719000Y-113411000D01*
X164465000Y-113411000D01*
X163105783Y-113411000D01*
X162984642Y-113643026D01*
X150622000Y-113643026D01*
X150622000Y-111103026D01*
X162984642Y-111103026D01*
X162987291Y-111118791D01*
X163241268Y-111646036D01*
X163653108Y-112014000D01*
X163241268Y-112381964D01*
X162987291Y-112909209D01*
X162984642Y-112924974D01*
X163105783Y-113157000D01*
X164465000Y-113157000D01*
X164465000Y-110871000D01*
X164719000Y-110871000D01*
X164719000Y-113157000D01*
X166078217Y-113157000D01*
X166199358Y-112924974D01*
X166196709Y-112909209D01*
X165942732Y-112381964D01*
X165530892Y-112014000D01*
X165942732Y-111646036D01*
X166196709Y-111118791D01*
X166199358Y-111103026D01*
X166078217Y-110871000D01*
X164719000Y-110871000D01*
X164465000Y-110871000D01*
X163105783Y-110871000D01*
X162984642Y-111103026D01*
X150622000Y-111103026D01*
X150622000Y-105664000D01*
X162908655Y-105664000D01*
X163022729Y-106237489D01*
X163347585Y-106723670D01*
X163662366Y-106934000D01*
X163347585Y-107144330D01*
X163022729Y-107630511D01*
X162908655Y-108204000D01*
X163022729Y-108777489D01*
X163347585Y-109263670D01*
X163657069Y-109470461D01*
X163241268Y-109841964D01*
X162987291Y-110369209D01*
X162984642Y-110384974D01*
X163105783Y-110617000D01*
X164465000Y-110617000D01*
X164465000Y-110597000D01*
X164719000Y-110597000D01*
X164719000Y-110617000D01*
X166078217Y-110617000D01*
X166199358Y-110384974D01*
X166196709Y-110369209D01*
X165942732Y-109841964D01*
X165526931Y-109470461D01*
X165836415Y-109263670D01*
X166161271Y-108777489D01*
X166275345Y-108204000D01*
X166161271Y-107630511D01*
X165836415Y-107144330D01*
X165521634Y-106934000D01*
X165836415Y-106723670D01*
X166161271Y-106237489D01*
X166275345Y-105664000D01*
X166161271Y-105090511D01*
X165836415Y-104604330D01*
X165822087Y-104594757D01*
X165843317Y-104590762D01*
X166059441Y-104451690D01*
X166204431Y-104239490D01*
X166255440Y-103987600D01*
X166255440Y-102260400D01*
X166211162Y-102025083D01*
X166072090Y-101808959D01*
X165859890Y-101663969D01*
X165608000Y-101612960D01*
X163576000Y-101612960D01*
X163340683Y-101657238D01*
X163124559Y-101796310D01*
X162979569Y-102008510D01*
X162928560Y-102260400D01*
X162928560Y-103987600D01*
X162972838Y-104222917D01*
X163111910Y-104439041D01*
X163324110Y-104584031D01*
X163365439Y-104592400D01*
X163347585Y-104604330D01*
X163022729Y-105090511D01*
X162908655Y-105664000D01*
X150622000Y-105664000D01*
X150622000Y-98552000D01*
X166878000Y-98552000D01*
X166878000Y-116713000D01*
M02*
